<?xml version="1.0" encoding="UTF-8"?>
<svg width="32px" height="32px" viewBox="0 0 32 32" version="1.1" xmlns="http://www.w3.org/2000/svg" xmlns:xlink="http://www.w3.org/1999/xlink">
    <!-- Generator: Sketch 58 (84663) - https://sketch.com -->
    <title>输入法-32px</title>
    <desc>Created with Sketch.</desc>
    <defs>
        <filter x="-15.4%" y="-15.4%" width="134.6%" height="130.8%" filterUnits="objectBoundingBox" id="filter-1">
            <feOffset dx="0" dy="1" in="SourceAlpha" result="shadowOffsetOuter1"></feOffset>
            <feGaussianBlur stdDeviation="0.5" in="shadowOffsetOuter1" result="shadowBlurOuter1"></feGaussianBlur>
            <feComposite in="shadowBlurOuter1" in2="SourceAlpha" operator="out" result="shadowBlurOuter1"></feComposite>
            <feColorMatrix values="0 0 0 0 0   0 0 0 0 0   0 0 0 0 0  0 0 0 0.15 0" type="matrix" in="shadowBlurOuter1" result="shadowMatrixOuter1"></feColorMatrix>
            <feMerge>
                <feMergeNode in="shadowMatrixOuter1"></feMergeNode>
                <feMergeNode in="SourceGraphic"></feMergeNode>
            </feMerge>
        </filter>
        <linearGradient x1="50%" y1="0%" x2="50%" y2="98.1385523%" id="linearGradient-2">
            <stop stop-color="#FFFFFF" offset="0%"></stop>
            <stop stop-color="#EDEDED" offset="100%"></stop>
        </linearGradient>
        <linearGradient x1="50%" y1="0%" x2="50%" y2="97.6449603%" id="linearGradient-3">
            <stop stop-color="#4A4A4A" offset="0%"></stop>
            <stop stop-color="#363636" offset="100%"></stop>
        </linearGradient>
        <path d="M19.5,9.5 C20.3284271,9.5 21,10.1715729 21,11 C21,11.8284271 20.3284271,12.5 19.5,12.5 L10.5,12.5 C9.67157288,12.5 9,11.8284271 9,11 C9,10.1715729 9.67157288,9.5 10.5,9.5 L19.5,9.5 Z M23.5,9.5 C24.3284271,9.5 25,10.1715729 25,11 C25,11.8284271 24.3284271,12.5 23.5,12.5 C22.6715729,12.5 22,11.8284271 22,11 C22,10.1715729 22.6715729,9.5 23.5,9.5 Z M2.5,9.5 C3.32842712,9.5 4,10.1715729 4,11 C4,11.8284271 3.32842712,12.5 2.5,12.5 C1.67157288,12.5 1,11.8284271 1,11 C1,10.1715729 1.67157288,9.5 2.5,9.5 Z M6.5,9.5 C7.32842712,9.5 8,10.1715729 8,11 C8,11.8284271 7.32842712,12.5 6.5,12.5 C5.67157288,12.5 5,11.8284271 5,11 C5,10.1715729 5.67157288,9.5 6.5,9.5 Z M5.5,5.5 C6.32842712,5.5 7,6.17157288 7,7 C7,7.82842712 6.32842712,8.5 5.5,8.5 L2.5,8.5 C1.67157288,8.5 1,7.82842712 1,7 C1,6.17157288 1.67157288,5.5 2.5,5.5 L5.5,5.5 Z M23.5,5.5 C24.3284271,5.5 25,6.17157288 25,7 C25,7.82842712 24.3284271,8.5 23.5,8.5 L21.5,8.5 C20.6715729,8.5 20,7.82842712 20,7 C20,6.17157288 20.6715729,5.5 21.5,5.5 L23.5,5.5 Z M9.5,5.5 C10.3284271,5.5 11,6.17157288 11,7 C11,7.82842712 10.3284271,8.5 9.5,8.5 C8.67157288,8.5 8,7.82842712 8,7 C8,6.17157288 8.67157288,5.5 9.5,5.5 Z M17.5,5.5 C18.3284271,5.5 19,6.17157288 19,7 C19,7.82842712 18.3284271,8.5 17.5,8.5 C16.6715729,8.5 16,7.82842712 16,7 C16,6.17157288 16.6715729,5.5 17.5,5.5 Z M13.5,5.5 C14.3284271,5.5 15,6.17157288 15,7 C15,7.82842712 14.3284271,8.5 13.5,8.5 C12.6715729,8.5 12,7.82842712 12,7 C12,6.17157288 12.6715729,5.5 13.5,5.5 Z M2.5,1.5 C3.32842712,1.5 4,2.17157288 4,3 C4,3.82842712 3.32842712,4.5 2.5,4.5 C1.67157288,4.5 1,3.82842712 1,3 C1,2.17157288 1.67157288,1.5 2.5,1.5 Z M15.5,1.5 C16.3284271,1.5 17,2.17157288 17,3 C17,3.82842712 16.3284271,4.5 15.5,4.5 C14.6715729,4.5 14,3.82842712 14,3 C14,2.17157288 14.6715729,1.5 15.5,1.5 Z M6.5,1.5 C7.32842712,1.5 8,2.17157288 8,3 C8,3.82842712 7.32842712,4.5 6.5,4.5 C5.67157288,4.5 5,3.82842712 5,3 C5,2.17157288 5.67157288,1.5 6.5,1.5 Z M10.5,1.5 C11.3284271,1.5 12,2.17157288 12,3 C12,3.82842712 11.3284271,4.5 10.5,4.5 C9.67157288,4.5 9,3.82842712 9,3 C9,2.17157288 9.67157288,1.5 10.5,1.5 Z M19.5,1.5 C20.3284271,1.5 21,2.17157288 21,3 C21,3.82842712 20.3284271,4.5 19.5,4.5 C18.6715729,4.5 18,3.82842712 18,3 C18,2.17157288 18.6715729,1.5 19.5,1.5 Z M23.5,1.5 C24.3284271,1.5 25,2.17157288 25,3 C25,3.82842712 24.3284271,4.5 23.5,4.5 C22.6715729,4.5 22,3.82842712 22,3 C22,2.17157288 22.6715729,1.5 23.5,1.5 Z" id="path-4"></path>
        <filter x="-2.1%" y="-4.5%" width="104.2%" height="118.2%" filterUnits="objectBoundingBox" id="filter-5">
            <feOffset dx="0" dy="1" in="SourceAlpha" result="shadowOffsetOuter1"></feOffset>
            <feColorMatrix values="0 0 0 0 0   0 0 0 0 0   0 0 0 0 0  0 0 0 0.1 0" type="matrix" in="shadowOffsetOuter1"></feColorMatrix>
        </filter>
        <filter x="-2.1%" y="-4.5%" width="104.2%" height="118.2%" filterUnits="objectBoundingBox" id="filter-6">
            <feOffset dx="0" dy="1" in="SourceAlpha" result="shadowOffsetInner1"></feOffset>
            <feComposite in="shadowOffsetInner1" in2="SourceAlpha" operator="arithmetic" k2="-1" k3="1" result="shadowInnerInner1"></feComposite>
            <feColorMatrix values="0 0 0 0 1   0 0 0 0 1   0 0 0 0 1  0 0 0 0.05 0" type="matrix" in="shadowInnerInner1" result="shadowMatrixInner1"></feColorMatrix>
            <feOffset dx="0" dy="-1" in="SourceAlpha" result="shadowOffsetInner2"></feOffset>
            <feComposite in="shadowOffsetInner2" in2="SourceAlpha" operator="arithmetic" k2="-1" k3="1" result="shadowInnerInner2"></feComposite>
            <feColorMatrix values="0 0 0 0 0   0 0 0 0 0   0 0 0 0 0  0 0 0 0.5 0" type="matrix" in="shadowInnerInner2" result="shadowMatrixInner2"></feColorMatrix>
            <feMerge>
                <feMergeNode in="shadowMatrixInner1"></feMergeNode>
                <feMergeNode in="shadowMatrixInner2"></feMergeNode>
            </feMerge>
        </filter>
        <linearGradient x1="50%" y1="0%" x2="50%" y2="100%" id="linearGradient-7">
            <stop stop-color="#B674F1" offset="0%"></stop>
            <stop stop-color="#FF5959" offset="100%"></stop>
        </linearGradient>
        <rect id="path-8" x="0" y="1.5" width="17.3125" height="17.3125" rx="8.65625"></rect>
        <filter x="-11.6%" y="-5.8%" width="123.1%" height="123.1%" filterUnits="objectBoundingBox" id="filter-9">
            <feOffset dx="0" dy="1" in="SourceAlpha" result="shadowOffsetOuter1"></feOffset>
            <feGaussianBlur stdDeviation="0.5" in="shadowOffsetOuter1" result="shadowBlurOuter1"></feGaussianBlur>
            <feColorMatrix values="0 0 0 0 0.146286232   0 0 0 0 0.00297143909   0 0 0 0 0.0789821476  0 0 0 0.32107736 0" type="matrix" in="shadowBlurOuter1"></feColorMatrix>
        </filter>
        <linearGradient x1="50%" y1="0%" x2="50%" y2="100%" id="linearGradient-10">
            <stop stop-color="#FFFFFF" offset="0%"></stop>
            <stop stop-color="#FFFFFF" stop-opacity="0.916958042" offset="100%"></stop>
        </linearGradient>
        <text id="text-11" font-family="SourceHanSansSC-Medium, Source Han Sans SC" font-size="13.125" font-weight="400">
            <tspan x="2" y="15">中</tspan>
        </text>
        <filter x="-14.3%" y="-5.3%" width="128.6%" height="121.1%" filterUnits="objectBoundingBox" id="filter-12">
            <feOffset dx="0" dy="1" in="SourceAlpha" result="shadowOffsetOuter1"></feOffset>
            <feGaussianBlur stdDeviation="0.5" in="shadowOffsetOuter1" result="shadowBlurOuter1"></feGaussianBlur>
            <feColorMatrix values="0 0 0 0 0.784313725   0 0 0 0 0.0392156863   0 0 0 0 0.0392156863  0 0 0 0.2 0" type="matrix" in="shadowBlurOuter1"></feColorMatrix>
        </filter>
    </defs>
    <g id="输入法-32px" stroke="none" stroke-width="1" fill="none" fill-rule="evenodd">
        <g id="编组-2" filter="url(#filter-1)" transform="translate(3.000000, 3.000000)">
            <g id="编组" transform="translate(0.000000, 9.500000)">
                <path d="M3.125,0.5 L22.875,0.5 C24.6008898,0.5 26,1.89911016 26,3.625 L26,12.375 C26,14.1008898 24.6008898,15.5 22.875,15.5 L3.125,15.5 C1.39911016,15.5 2.11360547e-16,14.1008898 0,12.375 L0,3.625 C-2.11360547e-16,1.89911016 1.39911016,0.5 3.125,0.5 Z" id="矩形" fill="url(#linearGradient-2)"></path>
                <g id="形状结合" fill-rule="nonzero">
                    <use fill="black" fill-opacity="1" filter="url(#filter-5)" xlink:href="#path-4"></use>
                    <use fill="url(#linearGradient-3)" xlink:href="#path-4"></use>
                    <use fill="black" fill-opacity="1" filter="url(#filter-6)" xlink:href="#path-4"></use>
                </g>
            </g>
            <g id="编组-2备份" transform="translate(8.000000, 0.000000)" fill-rule="nonzero">
                <g id="矩形">
                    <use fill="black" fill-opacity="1" filter="url(#filter-9)" xlink:href="#path-8"></use>
                    <use fill="url(#linearGradient-7)" xlink:href="#path-8"></use>
                </g>
                <g id="中">
                    <use fill="#FFFFFF" fill-opacity="1" filter="url(#filter-12)" xlink:href="#text-11"></use>
                    <use fill="url(#linearGradient-10)" xlink:href="#text-11"></use>
                    <use fill="#FFFFFF" fill-opacity="1" xlink:href="#text-11"></use>
                </g>
            </g>
        </g>
    </g>
</svg>